<!-- Generated by IcoMoon.io -->
<svg version="1.1" xmlns="http://www.w3.org/2000/svg" width="640" height="640" viewBox="0 0 640 640">
<title></title>
<g id="icomoon-ignore">
</g>
<path fill="#000" d="M352 288h64v64h-128v-128h64v64zM165.76 482.56c-43.254-40.826-70.181-98.548-70.181-162.56s26.927-121.734 70.072-162.459l0.109-0.101 26.24-157.44h256l26.24 157.44c43.254 40.826 70.181 98.548 70.181 162.56s-26.927 121.734-70.072 162.459l-0.109 0.101-26.24 157.44h-256l-26.24-157.44zM320 480c88.366 0 160-71.634 160-160s-71.634-160-160-160v0c-88.366 0-160 71.634-160 160s71.634 160 160 160v0z"></path>
</svg>
